<?xml version="1.0" encoding="UTF-8" standalone="no"?>
<svg width="26" height="26" viewBox="0 0 26 26" fill="none" version="1.1" id="svg4"
   xmlns="http://www.w3.org/2000/svg"
   xmlns:svg="http://www.w3.org/2000/svg">
   <defs id="defs8" />
   <rect width="26" height="26" rx="13" fill="none" id="rect2" x="0" y="0" />
   <g style="fill:none" id="g902" transform="translate(6.999903,6.9153)">
      <path fill-rule="evenodd" clip-rule="evenodd" d="M 7.4301,7.96781 C 8.79193,7.40572 9.75035,6.06478 9.75035,4.5 c 0,-2.07107 -1.67894,-3.75 -3.75,-3.75 -2.07107,0 -3.75,1.67893 -3.75,3.75 0,1.56473 0.95834,2.90563 2.3201,3.46775 C 3.1758,8.19993 1.89287,8.76594 0.808594,9.58058 L 2.19015,11.4194 C 3.25143,10.6221 4.56898,10.15 6.0001,10.15 c 1.43112,0 2.74867,0.4721 3.80996,1.2694 L 11.1916,9.58058 C 10.1074,8.76601 8.82462,8.20003 7.4301,7.96781 Z" fill="#ffffff" id="path893" />
   </g>
</svg>
